# xmcd
#
# Track frame offsets: 
#        150
#        11328
#        26187
#        36649
#        48020
#        57853
#        75262
#        85647
#        95404
#        110930
#        124448
#        135138
#        146644
#        160252
#        173128
#        185374
#        197487
#        206332
#        224635
#        237078
#        253466
#        266922
#        285629
#        303028
#
# Disc length: 4216 seconds
#
# Revision: 0
# Processed by: cddbd v1.5.2PL0 Copyright (c) Steve Scherf et al.
# Submitted via: ExactAudioCopyFreeDBPlugin 1.0
#
DISCID=54107618
DTITLE=Various Artist - Country Gold 60. and 70. léta
DYEAR=2018
DGENRE=Country
TTITLE0=Michal Tučný - Blues Folsomské věznice
TTITLE1=Rangers - Tvým snům zlým
TTITLE2=Josef Šimek - Když náš táta hrál
TTITLE3=Minnesengři - Nezhasínej svíčku
TTITLE4=KTO - Zápraží
TTITLE5=Pavel Bobek - Nedělní ráno
TTITLE6=Rangers - 900 mil
TTITLE7=Vratislav Vyskočil - Vlak do zlatodolu
TTITLE8=Michal Tučný - El Paso
TTITLE9=Jindřich Šťáhlavský - Pojedou
TTITLE10=Ladislav Vodička - Já smyl špínu rosou průhlednou
TTITLE11=Rangers - Mám radost
TTITLE12=Ladislav Vodička - Já tu zemi znám
TTITLE13=Tomáš Linka - Čím jezdí láska
TTITLE14=Ohaři - Tam se sejdem nejspíš
TTITLE15=Naďa Urbánková - Tobě náležel čas
TTITLE16=Pavel Brümer - Matterhorn
TTITLE17=Pavel Bobek - Lásko, mně ubývá sil
TTITLE18=Josef Blažejovský - Cesta má za tebou
TTITLE19=Rangers - Vysočina
TTITLE20=Michal Tučný - Sundej z hodin závaží
TTITLE21=Mirek Hoffmann - Oranžový expres
TTITLE22=Jiří Grossmann - Jako kotě si příst
TTITLE23=Rangers - Pole s bavlnou
EXTD=
EXTT0=
EXTT1=
EXTT2=
EXTT3=
EXTT4=
EXTT5=
EXTT6=
EXTT7=
EXTT8=
EXTT9=
EXTT10=
EXTT11=
EXTT12=
EXTT13=
EXTT14=
EXTT15=
EXTT16=
EXTT17=
EXTT18=
EXTT19=
EXTT20=
EXTT21=
EXTT22=
EXTT23=
PLAYORDER=
